<?xml version="1.0" encoding="utf-8"?>
<!-- Generator: Adobe Illustrator 15.0.0, SVG Export Plug-In . SVG Version: 6.00 Build 0)  -->
<!DOCTYPE svg PUBLIC "-//W3C//DTD SVG 1.0//EN" "http://www.w3.org/TR/2001/REC-SVG-20010904/DTD/svg10.dtd">
<svg version="1.0" id="Layer_1" xmlns="http://www.w3.org/2000/svg" xmlns:xlink="http://www.w3.org/1999/xlink" x="0px" y="0px"
	 width="400px" height="290px" viewBox="0 0 400 290" enable-background="new 0 0 400 290" xml:space="preserve">
<g>
	<path fill="#E2E2E2" d="M-1,0v290h400V0H-1z M393.005,269.628c0,6.628-5.385,12-12.03,12H18.024c-4.119,0-7.752-2.067-9.92-5.217
		c-1.329-1.93-2.11-4.265-2.11-6.783V107.861V20.372c0-6.628,5.386-12,12.03-12h359.396h3.555c3.312,0,6.31,1.336,8.485,3.495
		c2.189,2.173,3.544,5.181,3.544,8.505V269.628z"/>
	<path fill="#6B6B6B" d="M8.104,276.411c2.168,3.149,5.801,5.217,9.92,5.217h362.951c6.645,0,12.03-5.372,12.03-12V20.372
		c0-3.324-1.355-6.332-3.544-8.505C353.173,68.608,194.673,246.977,8.104,276.411z"/>
	<path fill="#A9A8A8" stroke="#FFFFFF" stroke-miterlimit="10" d="M380.976,8.372h-3.555H18.024c-6.644,0-12.03,5.372-12.03,12
		v87.489v161.767c0,2.519,0.781,4.854,2.11,6.783C194.673,246.977,353.173,68.608,389.461,11.867
		C387.286,9.708,384.288,8.372,380.976,8.372z"/>
</g>
</svg>
