<?xml version="1.0" encoding="utf-8"?>
<!-- Generator: Adobe Illustrator 15.0.0, SVG Export Plug-In . SVG Version: 6.00 Build 0)  -->
<!DOCTYPE svg PUBLIC "-//W3C//DTD SVG 1.0//EN" "http://www.w3.org/TR/2001/REC-SVG-20010904/DTD/svg10.dtd">
<svg version="1.0" id="Layer_1" xmlns="http://www.w3.org/2000/svg" xmlns:xlink="http://www.w3.org/1999/xlink" x="0px" y="0px"
	 width="400px" height="290px" viewBox="0 0 400 290" enable-background="new 0 0 400 290" xml:space="preserve">
<g>
	<path fill="none" stroke="#000000" stroke-miterlimit="10" d="M0,0v290h400V0H0z M319.902,89.697
		c-0.234,6.782-3.04,12.394-4.209,18.24c-1.169,5.846-8.928,8.544-8.928,8.544c-3.906,2.258-8.138,10.801-8.878,11.541
		c0.518,0.333,4.907,0.029,9.248,3.884c0,0-2.199,9.002-3.478,11.652c-6.066,5.586-11.578,11.8-14.648,19.162
		c-3.699,4.846-3.033,11.763-6.732,16.609c-0.481,1.812-2.034,3.366-2.848,4.883c-1.591,2.553-4.624,2.849-6.399,5.327
		c-1.48,0.74-1.85,2.293-2.405,3.736c-0.037,0.444-4.513,10.653-4.513,10.653c-0.259,1.11-0.666,4.217-0.888,4.883
		c-0.074,1.479-0.555,4.069-0.555,4.069c-0.498,4.689-2.318,7.586-3.625,10.838c-0.421,0.205-0.961,0.074-1.146-0.555
		c2.441-3.995-0.185-9.396,2.034-13.761c1.369-3.958,5.771-17.016,6.215-19.236c0.777-2.478,2.478-7.287,2.478-7.287
		c2.183-5.808,7.657-16.868,7.657-16.868c0.925-2.626,5.29-14.39,6.474-17.682c1.664-5.445,1.406-7.731,1.221-7.805
		c-1.59,6.917-4.143,13.465-7.62,19.605c-2.293,6.103-5.845,11.652-8.952,17.423c-1.998,5.104-3.291,10.512-4.735,15.795
		c-1.007,3.682-1.739,1.369-1.776,0.703c0.074-1.998,0-4.069-0.333-6.104c0,0-1.887,5.993-2.331,9.47
		c0.148,3.145-0.111,6.214-0.776,9.248c0,1.665-1.332,4.883-1.332,4.883c-0.629,2.959-2.441,6.326-3.292,9.507
		c-0.629,1.184-0.703,2.811-1.591,3.995c-2.22-0.111,0.018-7.558-1.591-9.367c0.092,6.194-4.254,12.549-4.55,13.437
		c-0.925,1.036-1.776,2.479-3.107,2.922c-0.962,2.368-0.999,5.105-1.665,7.546c-2.404,8.471-13.449,23.517-17.312,25.413
		c-4.889,2.4-10.542,4.181-15.98,3.44c-2.774-0.666-9.766-2.108-9.766-2.108c-10.528-2.779-13.549-6.666-14.833-7.287
		c-5.771-3.515-9.322-10.136-12.873-15.537c-1.96-4.106-2.858-10.331-9.581-18.644c0,0-4.365-8.175-3.736-9.581
		c-0.037-0.925,0.222-1.59,0.259-2.589c0.074-0.666-0.662-8.17-0.814-8.767c-1.766-6.905-4.032-10.431-4.069-10.579
		c-0.481,0.037-9.581-18.311-10.58-19.791c-0.074,0.629,6.141,14.464,6.141,14.464c0.666,1.442,4.815,9.128,5.956,17.83
		c0.037,1.406,0.703,8.582-0.629,9.766c-0.333,0.111-0.666,0.185-0.962,0.296c-0.555-0.518-0.451-1.323-0.629-1.96
		c-2.067-7.426-4.624-11.283-4.624-11.283l-4.513-7.546c-0.481,0.37,1.295,4.328,0.592,5.512c-0.592-0.111-0.666-0.888-1.146-1.258
		c-3.292-2.922-7.473-6.473-9.507-10.395c-0.666-0.37-3.884-9.951-4.254-10.468c-0.148,0.776,0.481,2.146-0.888,2.146
		c-0.407-0.185-3.993-0.657-8.175-14.575c0,0-1.554-9.359-1.923-10.21c-1.986-2.074-3.219-3.995-3.219-3.995
		c-1.923-4.957-1.886-10.727-1.405-16.313c-0.74-0.814-1.369-2.22-2.22-3.107c-0.259,2.367,0.037,5.178,0.703,7.546
		c0.555,2.664,0.037,5.66,0.443,8.508c1.591,4.919,6.326,8.767,6.399,14.13c-1.035,0.592-1.923,1.739-3.477,1.406
		c-0.592-0.37-1.845,0.154-5.586-1.406c-4.032-2.183-8.14-9.935-22.824-12.984c-0.074-1.073-0.37-2.182,0.555-2.997
		c1.479-0.592,6.251-6.214,7.546-7.102c1.775-1.739,6.474-3.921,6.548-4.106c-0.703-0.185-1.628-0.37-2.294-0.185
		c-1.405-0.037-3.292-0.074-4.439,0.999c-0.407,0.037-0.592-0.259-0.628-0.629c0.074-1.998,2.034-3.033,3.551-3.921
		c2.589-0.888,5.512-1.036,7.99-2.219c-4.401-0.617-8.582-3.699-8.952-4.513c-7.523-8.947-4.762-25.516-7.916-32.404
		c-1.931-4.216-3.81-14.76-4.624-19.791c-0.48-3.107,0.111-7.213,0.185-10.653c1.943-11.145,8.508-14.908,8.508-14.908
		c6.085-3.888,16.128-2.885,22.306,1.036c5.363,0.37,10.21-1.479,15.351-2.219c0.555-0.074,4.144-2.885,5.697-4.254
		c0.592-0.333,5.364-2.922,6.289-3.625c-1.813,0.259-3.884,0.407-5.586,1.221c-0.518-0.148-0.851-0.666-0.999-1.146
		c0.407-0.629,1.258-0.888,1.961-1.147c3.736-2.515,7.62-3.847,12.17-4.365c1.295-0.37,2.664-0.259,3.995-0.777
		c-0.592-0.185-3.337-1.134-1.073-2.479c2.959-0.074,6.104-0.703,8.989,0.148c2.072,0.259,7.361,1.184,7.805,1.073
		c-2.367-1.85-6.51-1.775-7.472-5.327c-0.296-0.777-0.666-1.479-0.888-2.293c0.666-0.444,1.162,0.021,1.775,0.333
		c6.889,3.499,17.34,6.601,17.756,7.213c0.416,0.612,2.922,0.074,2.922,0.074c-0.629-0.814-1.85-1.665-2.996-1.96
		c-0.111-0.407-0.851-0.185-0.444-0.703c0.703-0.776,1.775,0,2.663,0c1.776,0.407,3.551,0.814,4.957,2.035
		c-0.259-2.071-1.924-3.921-3.551-5.401c-0.074-0.296,0.259-0.37,0.444-0.443c2.293,0.703,4.069,2.7,5.956,4.365
		c0.814,1.294,2.293,2.071,3.181,3.107c0.999-1.665,1.887-3.478,3.403-4.994c0.925-0.777,1.998-1.627,2.812-2.293
		c0.592-0.37,0.777,0.296,1.073,0.629c-1.85,1.591-2.108,4.291-2.293,6.659c1.517-1.184,1.998-2.812,3.181-4.106
		c0.333-0.518,3.307-6.016,7.546-7.361c0.793-0.393,1.369-0.37,1.517,0.259c-0.333,0.629-4.624,5.585-5.586,7.546
		c1.258-0.185,2.664-0.628,3.995-0.961l5.216-4.55c1.848-0.933,4.298-3.838,5.253-0.703c-1.923,0.814-3.588,2.812-4.254,4.624
		c0,0,3.736,0.222,5.401,0.444c0.925,0.518-0.814,1.554,0.555,1.702c0.776-0.407,2.367-0.296,2.367-0.296
		c0.777-0.407,9.285,0.222,10.839-0.074c0.222,0.074,0.443,0.333,0.555,0.518c0.185,0.629-1.332,1.775-1.332,1.775
		c1.109,0.333,2.589,0.148,4.254,0.185c2.071,0.333,3.551,0.814,5.771,0.629c0.911,0.435,1.599,0.21,1.303,1.024
		c-0.918,0.581-1.269,0.405-1.857,1.011c0,0-0.962,0.444-1.48,0.703c3.625,0.999,7.325,1.924,10.802,3.292
		c2.7,0.333,8.249,3.255,7.916,3.81c-1.147,0.444-2.774,0.222-3.921,0.888c2.331,0.74,4.809,1.443,6.954,2.146
		c0.074,0.481-1.998,0.703-2.404,0.703c1.554,1.184,3.403,2.072,4.957,3.366c2.405,2.146,4.92,4.402,7.362,6.584
		c1.701,0.555,3.514,0.074,5.438,0.074c3.958-0.444,9.026-0.703,13.058-1.85c0.481,0.111,9.736-1.063,14.278,0.074
		c0,0,8.718,4.041,11.524,8.952S320.136,82.916,319.902,89.697z"/>
	<path fill="none" stroke="#000000" stroke-miterlimit="10" d="M307.209,53.151c-4.542-1.137-13.797,0.037-14.278-0.074
		c-4.032,1.146-9.1,1.406-13.058,1.85c-1.923,0-3.736,0.481-5.438-0.074c-2.441-2.182-4.957-4.439-7.362-6.584
		c-1.553-1.294-3.403-2.182-4.957-3.366c0.407,0,2.479-0.222,2.404-0.703c-2.146-0.703-4.624-1.406-6.954-2.146
		c1.146-0.666,2.774-0.444,3.921-0.888c0.333-0.555-5.216-3.477-7.916-3.81c-3.477-1.369-7.176-2.294-10.802-3.292
		c0.518-0.259,1.48-0.703,1.48-0.703c0.588-0.605,0.939-0.43,1.857-1.011c0.296-0.814-0.392-0.589-1.303-1.024
		c-2.219,0.185-3.699-0.296-5.771-0.629c-1.665-0.037-3.145,0.148-4.254-0.185c0,0,1.517-1.146,1.332-1.775
		c-0.111-0.185-0.333-0.444-0.555-0.518c-1.554,0.296-10.062-0.333-10.839,0.074c0,0-1.591-0.111-2.367,0.296
		c-1.369-0.148,0.37-1.184-0.555-1.702c-1.665-0.222-5.401-0.444-5.401-0.444c0.666-1.812,2.331-3.81,4.254-4.624
		c-0.955-3.136-3.405-0.23-5.253,0.703l-5.216,4.55c-1.332,0.333-2.737,0.777-3.995,0.961c0.962-1.96,5.253-6.917,5.586-7.546
		c-0.148-0.629-0.724-0.652-1.517-0.259c-4.24,1.345-7.213,6.844-7.546,7.361c-1.184,1.295-1.665,2.922-3.181,4.106
		c0.185-2.368,0.444-5.068,2.293-6.659c-0.296-0.333-0.481-0.999-1.073-0.629c-0.814,0.666-1.887,1.517-2.812,2.293
		c-1.517,1.517-2.404,3.329-3.403,4.994c-0.888-1.036-2.367-1.813-3.181-3.107c-1.886-1.665-3.662-3.662-5.956-4.365
		c-0.185,0.074-0.518,0.147-0.444,0.443c1.627,1.48,3.292,3.33,3.551,5.401c-1.406-1.221-3.181-1.627-4.957-2.035
		c-0.888,0-1.96-0.776-2.663,0c-0.407,0.518,0.333,0.296,0.444,0.703c1.146,0.296,2.367,1.146,2.996,1.96
		c0,0-2.506,0.538-2.922-0.074c-0.416-0.612-10.867-3.714-17.756-7.213c-0.613-0.312-1.11-0.777-1.775-0.333
		c0.222,0.814,0.592,1.517,0.888,2.293c0.962,3.551,5.105,3.477,7.472,5.327c-0.444,0.111-5.733-0.814-7.805-1.073
		c-2.885-0.851-6.029-0.222-8.989-0.148c-2.265,1.345,0.481,2.293,1.073,2.479c-1.332,0.518-2.7,0.407-3.995,0.777
		c-4.55,0.518-8.434,1.85-12.17,4.365c-0.703,0.259-1.554,0.518-1.961,1.147c0.148,0.481,0.481,0.999,0.999,1.146
		c1.702-0.813,3.773-0.961,5.586-1.221c-0.925,0.703-5.697,3.292-6.289,3.625c-1.553,1.369-5.142,4.18-5.697,4.254
		c-5.141,0.74-9.988,2.589-15.351,2.219c-6.178-3.921-16.221-4.924-22.306-1.036c0,0-6.565,3.763-8.508,14.908
		c-0.074,3.44-0.666,7.546-0.185,10.653c0.814,5.031,2.693,15.574,4.624,19.791c3.154,6.888,0.393,23.457,7.916,32.404
		c0.37,0.814,4.551,3.896,8.952,4.513c-2.479,1.184-5.401,1.332-7.99,2.219c-1.517,0.888-3.477,1.924-3.551,3.921
		c0.037,0.37,0.222,0.666,0.628,0.629c1.147-1.073,3.034-1.036,4.439-0.999c0.666-0.185,1.591,0,2.294,0.185
		c-0.074,0.185-4.772,2.367-6.548,4.106c-1.295,0.888-6.066,6.51-7.546,7.102c-0.925,0.814-0.629,1.924-0.555,2.997
		c14.684,3.049,18.792,10.801,22.824,12.984c3.741,1.56,4.994,1.036,5.586,1.406c1.553,0.333,2.441-0.814,3.477-1.406
		c-0.074-5.364-4.809-9.211-6.399-14.13c-0.407-2.849,0.111-5.845-0.443-8.508c-0.666-2.368-0.962-5.179-0.703-7.546
		c0.851,0.887,1.479,2.293,2.22,3.107c-0.481,5.586-0.518,11.356,1.405,16.313c0,0,1.232,1.921,3.219,3.995
		c0.369,0.851,1.923,10.21,1.923,10.21c4.182,13.918,7.768,14.39,8.175,14.575c1.369,0,0.74-1.369,0.888-2.146
		c0.37,0.518,3.588,10.099,4.254,10.468c2.034,3.921,6.214,7.472,9.507,10.395c0.48,0.37,0.555,1.147,1.146,1.258
		c0.703-1.184-1.073-5.142-0.592-5.512l4.513,7.546c0,0,2.557,3.857,4.624,11.283c0.178,0.638,0.074,1.442,0.629,1.96
		c0.296-0.111,0.629-0.185,0.962-0.296c1.332-1.184,0.666-8.36,0.629-9.766c-1.141-8.701-5.29-16.387-5.956-17.83
		c0,0-6.214-13.835-6.141-14.464c0.999,1.479,10.099,19.828,10.58,19.791c0.037,0.148,2.303,3.674,4.069,10.579
		c0.152,0.597,0.888,8.102,0.814,8.767c-0.037,0.999-0.296,1.665-0.259,2.589c-0.629,1.406,3.736,9.581,3.736,9.581
		c6.723,8.312,7.621,14.538,9.581,18.644c3.551,5.401,7.102,12.022,12.873,15.537c1.284,0.621,4.305,4.508,14.833,7.287
		c0,0,6.992,1.442,9.766,2.108c5.438,0.74,11.091-1.04,15.98-3.44c3.863-1.896,14.908-16.942,17.312-25.413
		c0.666-2.441,0.703-5.179,1.665-7.546c1.332-0.444,2.183-1.887,3.107-2.922c0.296-0.888,4.642-7.242,4.55-13.437
		c1.609,1.81-0.629,9.256,1.591,9.367c0.888-1.184,0.962-2.811,1.591-3.995c0.851-3.181,2.663-6.548,3.292-9.507
		c0,0,1.332-3.218,1.332-4.883c0.666-3.034,0.924-6.104,0.776-9.248c0.444-3.477,2.331-9.47,2.331-9.47
		c0.333,2.035,0.407,4.106,0.333,6.104c0.037,0.666,0.769,2.979,1.776-0.703c1.444-5.283,2.737-10.691,4.735-15.795
		c3.107-5.771,6.658-11.32,8.952-17.423c3.477-6.141,6.03-12.688,7.62-19.605c0.185,0.074,0.443,2.36-1.221,7.805
		c-1.184,3.292-5.548,15.055-6.474,17.682c0,0-5.475,11.061-7.657,16.868c0,0-1.701,4.809-2.478,7.287
		c-0.444,2.22-4.846,15.278-6.215,19.236c-2.219,4.365,0.407,9.766-2.034,13.761c0.185,0.629,0.726,0.759,1.146,0.555
		c1.307-3.252,3.127-6.149,3.625-10.838c0,0,0.48-2.589,0.555-4.069c0.222-0.666,0.629-3.773,0.888-4.883
		c0,0,4.476-10.209,4.513-10.653c0.555-1.443,0.925-2.996,2.405-3.736c1.775-2.478,4.809-2.774,6.399-5.327
		c0.814-1.517,2.367-3.07,2.848-4.883c3.699-4.846,3.033-11.763,6.732-16.609c3.07-7.361,8.582-13.576,14.648-19.162
		c1.278-2.65,3.478-11.652,3.478-11.652c-4.341-3.855-8.73-3.551-9.248-3.884c0.74-0.74,4.972-9.283,8.878-11.541
		c0,0,7.759-2.698,8.928-8.544c1.169-5.846,3.976-11.458,4.209-18.24c0.234-6.781,1.637-22.683-1.169-27.594
		S307.209,53.151,307.209,53.151z"/>
</g>
<path fill="none" stroke="#000000" stroke-miterlimit="10" d="M134.274,63.805c1.702-1.887,4.476-2.183,5.66-4.439
	c1.184-0.999,2.405-2.774,2.405-4.513c0.74-0.776,2.256-1.405,2.774-2.479c-0.185-0.222-0.222-0.555-0.555-0.628
	c-1.406,0-3.292,0.592-3.81,0.518c1.887-1.775,3.218-3.44,5.512-5.215l4.624-2.849c0.296-0.851-0.776-1.295-1.627-0.962
	l-3.551,0.962c1.036-1.48,4.365-3.847,4.439-3.625c2.479-0.924,9.951-5.179,9.951-5.179c3.107-1.738,8.212-1.479,11.911-1.406
	c-2.885,0.851-9.691,3.219-10.209,3.478c-0.888,1.11-3.218,0.629-2.589,2.663c0.259,0.296,3.366,0.407,3.477,0.962
	c-0.074-0.111-4.18,1.96-4.18,1.96c-1.221,1.036-4.513,2.516-4.698,2.479c-0.074,0.296,0.111,0.37-0.111,0.629
	c0.333,0.555,2.959,1.591,2.959,1.591c-1.332,0.444-4.661,4.254-5.697,4.254c-0.222,0.185-0.296,0.444-0.259,0.703
	c0.37,0.259,2.072,1.48,2.848,0.999c-1.311,1.615-6.51,3.107-6.51,3.107l2.003,0.684c0.333,0.629,2.546,0.574,2.805,0.648
	c-0.37,0.444-3.736,2.663-3.736,2.663c-1.591,0.703-3.44,1.406-5.142,2.109c0.222,0.924,2.145,0.888,2.145,0.888
	c-5.438,3.292-15.536,11.985-15.536,11.985l-2.516,1.517l-4.587,0.111c0.518-1.479,1.923-2.626,2.479-4.106
	C128.208,70.538,132.24,67.504,134.274,63.805z"/>
<path fill="none" stroke="#000000" stroke-miterlimit="10" d="M178.923,73.571c0,0,14.312-0.493,16.239,4.883
	c0.37,0.481,0.481,1.591,1.332,0.888c0.851-0.185,0.37-1.073,0.629-1.59c0.555-1.221,0.962-2.516,2.035-3.551
	c2.219-1.073,4.624-2.404,7.287-1.591c0.592,0.259,1.295,0.222,1.961,0.37c0.333-0.444,1.221-0.629,0.961-1.258
	c0,0-5.568-2.486-12.614,1.406l0.111-1.923c0.185-2.146-0.037-4.106,0.518-6.067c2.256-1.85,5.105-2.219,7.916-2.737
	c3.551,0.333,7.805,0.592,9.84,4.513c0.407,0.333,1.442,1.184,1.442,1.184c2.849-1.147,6.399-0.407,9.655-0.814V67.8
	c-1.886,1.702-2.589,4.439-5.068,6.066c-2.515,0.333-5.031,2.516-6.029,4.883c-2.331-1.184-5.253-1.665-7.62-0.296
	c-1.295,0.851-2.441,2.072-3.995,2.22c-2.737-0.999-5.808-0.481-8.249,0.74c-2.072-3.921-6.844-4.661-10.838-4.365
	c-3.551-2.589-8.064-3.033-12.097-3.366c-2.996-2.256-6.658-3.81-10.727-3.107c-2.516-0.777-5.882-0.74-8.508-0.814
	c3.033-2.812,7.028-4.439,10.654-6.474c3.292-0.851,5.29,1.998,7.99,3.182c2.997-0.814,6.659-1.11,9.396-2.479
	c3.477-0.703,7.287-0.074,10.136,1.887c1.627,2.479,2.293,8.249,2.293,8.249s-3.403-1.775-3.366-1.702
	c-0.185,0.074-2.997,0.259-4.365,0c-2.071,0.481-4.439,0.222-6.658,0.37C178.923,72.979,178.701,73.312,178.923,73.571z"/>
<path fill="none" stroke="#000000" stroke-miterlimit="10" d="M110.748,80.969l-1.775,1.406c-0.888-3.219,1.479-5.475,3.625-7.361
	C113.264,77.011,110.711,80.747,110.748,80.969z"/>
<path fill="none" stroke="#000000" stroke-miterlimit="10" d="M115.372,66.58c-0.434,2.422-0.555,4.143-2.849,5.068
	c-0.74,0.813-3.81,2.811-4.365,2.811c-1.257,0.518-2.256,1.147-3.625,1.443c-0.333,0.037-0.962,2.219-0.629,3.107
	c-0.074-0.037,0.962,3.145,1.073,4.698c0.37,1.073-5.031,10.468-5.586,14.907c-0.148,0.518-0.407,1.184-0.814,1.443
	c-0.481-1.11,0.222-2.034-0.259-3.107c-0.334-5.031,2.404-7.99,2.404-7.99c0.037-0.666,0.703-2.146,0.703-2.146
	c-0.222-0.222-3.107,0.148-4.105,1.147c-0.74,0.259-3.551-2.183-3.107-3.107c-1.49-3.341-1.479-10.209-1.479-10.209
	s1.626-5.876,2.922-7.879c0.981-1.456,2.678-4.728,8.878-8.619c1.258-0.333,2.104-0.953,3.625-1.258
	c3.847-1.184,4.919,3.514,6.584,5.882C115.076,63.99,115.557,65.248,115.372,66.58z"/>
<path fill="none" stroke="#000000" stroke-miterlimit="10" d="M114.928,57.887c-0.48-1.258-1.85-1.85-2.848-2.59
	c-3.107-1.479-6.612-3.015-10.321-1.849c-3.179,0.999-6.542,1.451-8.767,3.625c-1.438,1.406-1.85,2.478-2.59,3.921
	c0.037,2.589,0.216,4.383-0.259,7.25c-0.074,5.66,0.074,10.986,0.518,16.609c0.143,4.73,4.069,11.763,5.068,14.833
	c0.333,0.074,2.737,3.884,1.146,5.771c-0.333,0.814-0.333,1.961-0.776,2.849c-0.111,0.555-0.259,1.406,0.443,1.665
	c1.554-0.148,2.405-1.96,3.995-2.108c-1.513,3.17-2.404,11.948-0.813,11.727c1.869-0.657,1.664-2.442,1.887-2.774
	c0.592,0,5.03,9.137,5.03,9.137c0.296,0.74,0.962,1.369,1.258,2.071c-2.293,0.666-4.513-1.073-6.584-1.702
	c-8.648-9.572-9.026-26.708-9.026-26.708c0-2.125-3.699-14.463-4.55-15.906c-0.888-3.107-1.146-6.547-1.517-9.766
	c0.74-6.806,0.407-13.649,3.403-19.605c3.145-4.698,8.619-7.213,13.835-8.286c10.72,0.313,16.271,5.469,17.047,6.135
	c1.765,1.307,5.879,5.438,6.221,6.479c0.11,3.07-2.738,4.846-4.809,6.769C117.443,65.359,117.258,60.365,114.928,57.887z"/>
<path d="M275.063,111.672c-0.518,2.441-1.146,4.846-1.85,7.176c-1.479,3.182-3.255,6.214-4.438,9.507
	c-0.999,1.517-4.328,11.542-4.106,12.244c-0.407,0.518-0.925,4.624-0.703,6.214c-0.592,1.036-0.988,9.494-9.063,16.721
	l-3.995,10.801c-1.294,2.441-1.923,5.29-2.922,7.916c0,0.629,0.185,5.253,0.185,5.253l-0.185,6.547c0,0-3.514,10.432-2.219,14.76
	c0.333,1.442,1.184,2.774,0.999,4.328c0.529,3.651,0.178,4.587-0.555,7.213c-2.553,4.55-3.625,9.766-5.216,14.723
	c-1.036,3.034-2.146,6.326-3.662,9.063c-2.219,4.92-4.587,9.433-7.879,13.761c-4.994,4.106-12.133,5.327-19.013,5.216
	c-2.886-0.222-7.811,0.679-10.136-0.259c-2.326-0.938-11.134-3.847-15.98-7.177c-4.365-4.328-8.582-9.1-11.43-14.315
	c-1.998-4.328-3.773-8.73-6.03-12.947c1.036-0.148,1.85,0.629,2.922,0.888c0,0,6.399,8.36,8.508,12.17
	c3.107,4.661,8.508,5.068,13.428,5.66c1.369,1.036,2.626,0.629,3.995,0.999c2.441-0.148,3.588,1.443,5.66,2.479
	c0.703,1.073,1.184,2.367,0.999,3.736c0.185,0.296,2.22-1.517,2.22-1.517s3.773-1.812,4.069-1.702
	c0.111,1.406,2.331,2.22,3.181,2.331c-0.185-0.296,2.589-4.439,2.589-4.439c0.111-0.185,16.868-14.796,19.976-18.57
	c0.222,0.185,3.662-2.404,5.401-3.181c0.851-2.552,3.81-4.328,4.18-6.917c-0.666,0.481-4.106,2.701-4.771,3.44
	c-2.774,1.775-4.55,4.217-6.659,6.399c-1.295-0.259-2.7,2.7-3.477,3.551c0,0-3.034,3.921-3.625,3.995
	c-3.034,2.959-7.583,1.813-11.098,3.736c-1.998,0.518-3.736,1.776-5.956,1.406c-3.107,0.185-17.534-1.85-17.423-1.85
	c0,0-5.253-3.884-5.919-4.106c-0.296-0.444-1.109-3.995-0.555-4.883c1.332-1.443,3.255-0.851,4.994-1.147
	c3.847,0.259,8.249,0.555,12.244,1.073c1.443-0.185,9.396,1.036,9.84,0.518c2.183-0.259,7.768-0.888,8.175-1.221
	c0.37,0.481,5.068-1.517,5.068-1.517s15.573-14.575,16.054-14.464c1.032,0.103,0.629,1.517,1.59,1.406
	c0.844-0.367-0.074-2.885-0.518-3.884c-0.629-0.592-1.665-0.888-2.479-0.628c-0.481,0.628-11.171,10.172-14.833,14.981
	c-2.22,2.293-5.623,1.627-8.25,2.848c-4.106,0.629-7.398,0-11.097,0c-1.96-0.148-3.552-0.757-5.512-1.146
	c-14.771-2.939-24.018,0.657-28.594-0.888c-1.738-0.961-10.136-6.473-10.469-8.36c-1.109-2.22-0.813-10.913-1.517-12.133
	c-0.333-3.181-1.036-6.177-1.775-9.174c0.017-0.486-3.03-17.631,3.736-20.567c0.851-1.221,1.85-2.257,2.479-3.477
	c0-0.74,1.332-8.878,1.258-11.616c-0.222-0.703,0.962-0.851,1.406-1.258c1.221-0.925,10.469-13.243,10.838-13.501
	c2.257-0.037,4.143-1.517,6.03-2.738c0.962-1.775,2.479-2.219,2.922-4.18c0,0-1.147-0.925-1.591-0.37
	c-1.776,1.184-3.218,2.701-4.883,3.921c-1.739,1.775-5.623,2.071-7.436,4.698c-1.59,1.332-2.922,3.255-4.18,4.698
	c0.037-1.59,0.925-2.959,0.962-4.439c0.592-1.294,1.997-2.034,2.848-3.255c0.555-1.073,1.052-3.034,0.518-3.663
	c-0.776,3.958-6.029,5.216-6.473,9.248c-0.814,2.553-1.443,5.216-3.292,7.361c-1.332-1.85-3.604,0.457-5.157,0.198
	c0,0-4.202-2.011-5.644-4.378c-0.592-1.665-1.775-3.218-1.702-5.216c0.111-0.518,1.517-2.219,0.888-2.774
	c-1.036-0.888-2.219-0.555-3.477-0.776c-0.925-0.518-2.108-1.258-3.107-0.888c0.148,1.146,1.184,2.035,2.146,2.737
	c0.999,1.332,1.258,3.107,2.146,4.513c1.184,2.108,2.441,4.032,4.513,5.438c0,0,4.18,3.366,5.067,3.625
	c0.999,0.481,3.107,2.922,3.107,2.922s-4.846,8.73-4.994,9.433c0,0-2.626,2.367-4.587,1.85c-1.554-0.444-4.365-2.256-4.883-2.404
	c-0.222-0.999-12.244-30.814-11.837-31.332c2.108-0.148,4.365-0.592,6.214,0.629c0.481,0.814,2.701,0.481,3.107,0.259
	c-0.148-0.703-1.627-2.589-2.219-3.107c-1.221-2.959-2.22-5.549-1.776-8.952c1.11-0.407,2.293,0.111,3.218,0.703
	c2.589,1.739,2.092,4,4.18,6.733c1.258,3.403,4.328,5.216,6.991,7.472c3.329,1.998,8.526,0.999,11.448-0.962
	c-0.222-0.444,0.093-0.518-0.092-0.888c-1.377,0.297-2.404,0.999-3.699,1.221c-3.329,0.962-6.77,0.074-9.174-2.293
	c-4.032-4.069-3.551-10.025-4.513-15.352c2.589,2.441,4.402,7.14,8.434,8.323c1.405,0.259,2.959,0.333,4.18-0.074
	c0,0,2.922-0.851,4.624-0.999c0,0,4.18-0.925,4.439-2.367c-0.703-0.518-0.991,0.029-2.22,0.518
	c-3.773-0.111-7.731,1.628-11.023,0.37c-1.48-1.368-3.182-2.922-4.069-4.883c3.736,2.553,9.211,1.924,13.65,0.888
	c1.209-0.313,2.331-0.037,3.218-0.814c0,0-0.148-0.851-0.37-0.962c-3.478-0.48-6.289,1.184-9.581,0.592
	c-3.44,0.111-5.882-5.142-5.882-5.142s3.308,2.51,5.774,3.125c2.904,0.725,5.126,0.549,8.615-0.092
	c2.22-0.629,5.142-1.775,7.028-1.146c0.037,0.813,0.074,3.736,0.074,4.328c-0.296,0.148,0.458,5.469-9.137,11.356
	c0.703,0.703,4.254-0.777,4.254-0.777c0.333,0,4.587-3.773,4.883-5.142c0.666-1.554,1.221-3.255,1.59-4.809
	c0.666-1.923-1.553-3.884,0.37-5.4c1.295,3.662-0.961,8.729,2.22,11.615c0.333,0.518,0.592-0.814,0.703-1.517
	c-0.111-1.332-0.111-2.479,0-3.811c0.518,0.296,1.073,1.11,1.702,0.814c0.296,0.962,0.555,2.256,1.775,2.553
	c1.258,0.37,2.812-0.851,3.625,0.703c0.703,0.74,0.999,1.739,0.703,2.774c0,0.813-1.739,1.442-0.333,2.108
	c1.702-0.481,3.33-1.517,5.142-1.479c0.629,0.444,5.697,1.665,7.472,1.036c1.554-1.221,3.588-1.775,5.475-0.888
	c0.629,0.333,1.147,1.184,1.96,0.74c0.851-0.592,0.111-2.183,0.999-2.959c0.74-0.296,1.036-1.147,1.775-1.406
	c1.406,0,3.773-0.518,4.883,0.814c1.554,1.258,2.959,2.7,4.254,4.254c1.257,0.777,3.736,3.181,3.736,3.181s8.411,3.4,13.206,1.073
	c2.108-0.592,4.069-1.591,6.029-2.479c0.999,0.555,1.332,1.85,1.776,2.848c0.74,2.183-0.037,4.624-1.036,6.547
	c-0.296,0.851,0.37,0.888,0.888,0.999c1.369-2.368,3.44-4.55,3.366-7.398c-0.111-2.293-0.37-4.513-1.147-6.547
	c-0.222-0.629-2.922,0.888-3.847,0.962c2.146-1.887,4.476-5.068,5.179-7.99c0.814-0.999,0.444-2.22,1.406-3.107
	c2.109-0.111,3.403,2.959,5.697,1.332c0.296-0.74,0.888-1.517,0.888-1.517c0.296-1.369,1.96-3.218,0.962-4.328
	c-0.666,0.259-0.703,0.333-1.517,0.185c-2.404-0.776-6.843-4.92-6.732-5.068l-1.442-3.736l-3.182-8.249
	c-0.592-1.924-1.443-3.403-3.181-4.698c-0.111-1.369,0.074-2.552-0.629-3.551c0,0-1.036-1.665-1.887-2.774
	c1.554,0.185,3.145-0.481,4.735-0.703c0.925,2.072,0.333,5.475,3.182,6.399c0.999,0.37,2.182,0.185,2.922-0.629
	c0,0,5.623,7.288,6.325,11.098c0.444,0.222,0.962,0,1.332-0.37c0.074-0.666-0.222-1.516-0.111-2.219v-2.479
	c0,0,0.296-3.551,0.259-3.884c-0.222-2.626,3.033-6.363-0.148-7.657c-2.331-1.036-3.515,1.738-5.438,2.219
	c-2.479-3.551-3.884-7.657-6.658-11.282c-0.962-0.703-2.441-2.331-3.625-2.479c-2.293-1.775-5.549,0.444-7.99,0.999
	c-0.962,0.629-2.959,2.478-2.922,2.663c1.665-0.074,3.514-1.887,5.475-1.073c1.294,1.184,3.255,1.924,3.995,3.107
	c0.074-0.074,0.555,0.666,0.814,1.221c-1.85-0.074-3.773,0.813-5.401,0.999c-2.8-0.033-4.613-0.377-8.218-0.013l-6.999,5.712
	c-0.166,0.139-5.023,6.265-5.203,6.36c-1.665,0.703-3.44,1.554-4.439,3.218c-1.627,3.182-2.367,6.844-5.179,9.396
	c0.296,2.219,1.59,4.735,3.921,5.771c2.552,0.666,3.884,3.403,5.696,5.142c-0.037,0.961-0.185,1.517-0.37,2.404
	c-2.256-1.85-5.104-1.554-7.805-2.293c-2.552-0.074-3.181,3.292-5.881,2.812c-0.703-0.592-2.035-0.37-2.219-1.48
	c-0.333-1.368,3.292-11.06,5.623-14.205c0.407-2.404-1.295-4.994,0.148-7.287c-0.222-0.333-1.369-0.629-1.665-0.37
	c-0.407,1.369-1.443,2.812-1.147,4.624c0,0-5.512,0.888-8.619,0c-2.034,0.259-3.699-1.294-4.55-2.922
	c-0.185-0.629,0.444-1.332-0.148-1.702c-0.629-0.111-1.147,0.481-1.258,0.999c-0.037,2.479,0.962,5.253,3.181,6.473
	c0.666,0.777,1.702,1.665,1.961,2.738c1.702,1.479,3.144,3.736,5.252,4.55c0.481,1.85-1.701,3.588-0.555,5.401
	c-0.203,1.517,0.555,2.441-0.777,2.922c-1.517-0.222-2.552,1.146-3.995,0.555c-0.999-1.665-2.663-2.368-4.365-2.146
	c-1.96,0.259-3.329-0.037-4.883,1.332c-0.813-1.517-0.592-3.625-0.888-5.401c-0.813-1.665,2.959-2.663,0.703-3.921
	c-0.518-0.074-1.665-7.028-1.665-7.028c-0.111-1.665-0.962-3.477-1.96-5.031c-1.85-2.035-7.657-11.023-7.621-10.95
	c0,0-5.682-2.569-10.327-0.966c-4.603-0.833-9.39,4.665-11.609,5.331c-1.792,1.606,2.885,1.258,3.292,2.663
	c-0.481,2.293-1.887,6.474-1.887,6.474c-0.592,0.888-1.405,4.106-1.405,4.106c-0.185,0.333-11.652,8.582-11.652,9.396
	c0,0-2.9,1.608-2.664,6.289c0.74,0.592,1.184,1.554,2.146,1.702c0.296,3.107,1.775,5.918,2.849,8.804
	c-0.629-0.555-1.48-0.407-2.331-0.74c-0.999-0.148-1.961-0.666-2.737-1.221c-0.444-0.074-1.258-0.518-1.591-0.888
	c0,0-2.626-3.329-3.551-5.142c-0.851-2.774-1.812-5.548-2.922-8.101c-0.629-0.111-4.92-10.543-5.253-16.055
	c-0.277-0.961-0.432-1.96-0.496-2.974c-10.806-33.192,37.264-39.504,49.845-30.978c0.595,0.077,2.753,0.592,3.401,0.475
	c2.108,0.703,4.55,1.702,6.547,2.922c1.146,1.739-0.925,3.255-0.629,4.883c1.775,0.333,1.591-2.146,2.959-2.737
	c0.851-0.851,1.59-1.813,2.812-1.96c2.293-0.333,4.291,0.776,5.623,2.663c0.481,1.776,1.184,3.625,2.996,4.439
	c1.702,2.109,1.998,4.809,2.589,7.361c0.666,0.185,0.925-0.259,1.332-0.518c-0.259-2.849-0.666-5.623-2.479-7.805
	c-0.407-0.629,0.296-1.258,0.592-1.776c1.073-1.11,2.553-1.184,3.921-1.184c2.664,1.554,2.997,4.772,2.479,7.657
	c0.037,1.073,0.185,2.183,0.888,2.922c0.111,0,0.924-0.407,0.999-0.37c0.814-3.847-1.258-8.73,2.108-11.097
	c0.222,0,3.81-1.406,5.327-0.333c0.703,0.851,1.776,1.886,2.849,1.59c1.332,1.85,3.033,6.326,3.107,6.585
	c1.294-0.111,0.481-1.85,0.703-2.59c-0.777-2.441-2.368-5.438-0.333-7.805c0,0,10.949-5.733,12.133-6.141
	c5.475-1.96,12.318-1.921,18.496,0.444c12.779,4.893,14.648,9.581,14.648,9.581c4.661,5.031,10.469,10.653,10.913,17.941
	C276.396,103.83,275.211,107.677,275.063,111.672z"/>
<path fill="none" stroke="#000000" stroke-miterlimit="10" d="M169.675,109.97c-1.85-0.999-3.218-3.477-5.327-4.328
	c0.444-0.443,1.221-0.222,1.886-0.555c4.809,0.703,9.655,9.248,9.655,9.248c1.517,1.553,3.662,6.88,3.662,7.028
	c-0.48-0.814-3.033-2.072-3.366-2.404C177.037,116.222,170.637,111.154,169.675,109.97z"/>
<path fill="none" stroke="#000000" stroke-miterlimit="10" d="M168.011,113.374c-0.296,1.11-1.073,2.293-2.331,2.479
	c-0.407,0.185-1.294,0-1.85-0.185c-0.74-0.666-0.962-1.627-0.703-2.589c0.296-0.851,1.073-1.924,2.034-2.108
	C167.085,111.21,168.084,112.375,168.011,113.374z"/>
<path fill="none" stroke="#000000" stroke-miterlimit="10" d="M171.377,105.457c-3.218-2.996-12.355-2.219-12.355-2.219
	s1.775-1.998,1.775-2.035c0.148-0.037,7.99-3.033,9.063-2.33c0.592,0.703,0.851,1.738,1.517,2.219
	C172.364,102.234,171.377,105.457,171.377,105.457z"/>
<path fill="none" stroke="#000000" stroke-miterlimit="10" d="M161.426,110.71c-1.036,1.221-1.702,3.292-1.147,5.031
	c1.332,1.85,3.218,3.44,5.512,3.034c1.443,0.148,2.664-0.851,3.736-1.702c0.999-1.295,0.999-2.368,0.703-3.625
	c2.183,1.406,4.069,3.625,3.884,6.289c0.185,1.517-1.443,1.701-2.219,2.404c-1.702,0.777-3.7,0.703-5.586,1.073
	c-3.45,1.241-8.249-1.591-8.249-1.591c-2.265-2.563-1.961-3.699-1.702-6.03C157.024,113.151,159.392,111.635,161.426,110.71z"/>
<path fill="none" stroke="#000000" stroke-miterlimit="10" d="M185.84,129.687c3.736-1.776,6.215,4.513,10.025,1.442
	c2.293-1.147,3.81,1.332,6.141,0.592c1.739-0.222,2.441-1.775,4.069-2.293c1.332-0.407,2.812-0.444,4.291-0.518
	c0.925,0.222,1.96,0.518,2.664,1.146c0.333,0.555,0.851,1.665,0.074,2.293c-0.999,1.665-3.255,0.074-4.624,1.073
	c-1.48,0.555-3.403,0.851-4.069,2.664c-2.441,1.553-6.178,1.702-8.804,0.444c-1.332-0.074-2.368-0.296-3.736-0.074
	c-0.666-0.444-0.925-1.332-1.221-2.071c-0.962-1.11-2.108-2.738-3.736-2.293l-2.293,0.518
	C184.361,131.5,184.878,130.353,185.84,129.687z"/>
<path fill="none" stroke="#000000" stroke-miterlimit="10" d="M237.591,135.716c3.477-2.516,9.137-9.396,9.248-9.322
	c-0.629,4.92-1.887,10.432-7.028,12.614c-2.479-0.111-3.551,2.7-5.327,3.81c-3.255,1.221-6.844,0.185-9.84-1.147
	c-2.516-2.33-4.55-4.957-5.771-7.99c1.073-1.85-0.37-3.551-1.073-5.142c0.629-0.444,0.592-1.11,0.444-1.85
	c-0.628-1.443,0.888-0.629,1.517,1.85c1.665,4.661,6.251,6.547,10.728,6.732c-1.258-0.37-3.699-2.552-3.699-2.552
	c-1.11-0.962-3.736-3.292-3.736-3.292c-1.11-2.22-2.922-3.81-3.292-6.214c1.442-0.777,3.181-0.777,4.809-0.37
	c3.145,2.997,7.583,2.922,11.8,1.776c2.404-0.481,3.884-2.701,6.399-2.997c-2.219,2.959-5.179,5.068-8.175,6.917
	c-2.701,1.294-5.956-0.296-8.619,0.37v0.074c2.848,1.294,7.139,2.072,10.209,0.703c0.962-0.259,4.883-2.368,5.142-2.849
	c1.258-0.777,1.738-1.479,2.663-2.479c0.74,2.293-0.925,4.254-2.219,6.03c-2.441,2.626-5.401,4.032-8.508,5.068
	C234.447,136.752,236.038,135.643,237.591,135.716z"/>
<path fill="none" stroke="#000000" stroke-miterlimit="10" d="M228.38,118.072c1.48,0.776,3.366,1.442,5.142,0.776
	c1.739-0.851,3.736-2.146,3.736-4.328c0.155-1.147-0.592-1.665-0.259-2.59c1.702,1.48,2.885,3.699,2.737,5.882
	c-1.775,4.402-7.117,4.623-11.097,4.439c-2.78-0.623-4.55-3.403-4.624-3.477c-0.185-1.221,0.888-3.921,0.888-3.921
	c0.074-0.148,1.11-1.443,1.702-1.85C226.42,114.89,226.642,116.999,228.38,118.072z"/>
<path fill="none" stroke="#000000" stroke-miterlimit="10" d="M228.824,115.038c0.111-1.406,0.296-2.7,1.665-3.366
	c1.036-0.481,2.626-0.703,3.218,0.518c0.703,1.109,0.222,2.589-0.443,3.551c-0.74,0.851-1.887,1.221-3.034,0.999
	C229.638,116.296,228.861,115.852,228.824,115.038z"/>
<path fill="none" stroke="#000000" stroke-miterlimit="10" d="M242.918,115.593c-2.33-2.071-2.848-3.662-4.698-5.881
	c-2.071-2.256-4.994-3.44-8.175-2.737c0.37-0.407,2.108-1.406,2.515-1.332c2.146,0.222,3.921,0.814,5.771,1.85
	c2.737,2.108,3.588,5.142,4.697,7.99L242.918,115.593z"/>
<path fill="none" stroke="#000000" stroke-miterlimit="10" d="M222.824,105.154c-0.328,0.619,3.238-10.689,7.213-10.58l4.254,5.438
	C234.292,100.012,224.414,102.153,222.824,105.154z"/>
<path fill="none" stroke="#000000" stroke-miterlimit="10" d="M225.163,106.789c0.851-0.518,1.701-0.222,1.332-0.074l-0.518,0.259
	c-4.92,3.514-5.733,9.211-9.581,13.391c-0.148-1.627-3.144-2.478-1.257-4.069c2.441-1.258,3.551-3.847,5.327-5.771
	C222.092,109.378,223.387,107.714,225.163,106.789z"/>
<path fill="none" stroke="#000000" stroke-miterlimit="10" d="M264.669,71.204c-1.11-0.555-2.22-1.517-3.107-2.22
	c0.851,0.444,1.923,0.962,2.774,0.888c0.222-0.333,0.32-0.461,0.185-0.888c-1.209-2.905-7.916-4.106-10.949-6.066
	c1.406-0.148,2.737-0.703,3.995-0.888c0.518-0.186,0.444-0.851,0.185-1.147c-1.22-1.369-2.774-2.071-4.439-2.404
	c-0.296-0.148-4.069-0.518-4.069-0.518c0.555-0.851,2.22-0.777,1.85-2.035l-0.444-0.444c-4.624-1.443-9.84-0.37-14.205,0.444
	c0,0,3.514-1.665,5.697-1.775c0.444-0.444,0.813-1.036,0.518-1.702c-2.293-1.479-5.252-1.369-7.805-2.22
	c-2.108,0.074-4.18,0.148-6.141,0.629c0.962-0.481,2.368-1.073,3.403-2.034c0.296-0.666-0.481-0.925-0.814-1.147l-4.957-0.185
	c1.184-0.333,2.219-1.109,3.255-1.775c-0.407-1.443-2.293-1.295-3.625-1.517c-3.366-0.148-6.474,0.74-8.952,2.219
	c0.296-0.813,1.554-1.479,1.146-2.404c-0.296-0.37-0.777-0.37-1.258-0.333c-5.179,1.812-8.841,6.251-13.501,9.396
	c1.405-4.032,4.624-7.99,8.434-10.654c0.111-0.222,0.37-0.407,0.296-0.703l-0.813-0.629c-3.07,0.444-5.734,1.812-8.434,3.107
	c-4.143,3.699-5.031,9.063-6.732,13.946c-0.074-3.958-0.407-8.508,0.592-12.614c-0.111-0.518-0.814-0.555-1.146-0.259
	c-1.776,3.181-2.072,7.176-2.109,10.913c-1.184-4.328-2.182-8.101-4.18-12.06c-0.296-0.407-0.777-0.407-1.147-0.185
	c-0.222,0.222-0.407,0.591-0.185,0.888c1.258,5.475,2.626,10.913,4.069,16.313c-0.851-0.851-0.814-2.293-1.406-3.366
	c-1.369-3.107-2.737-7.361-6.659-8.249c-2.071-0.962-4.069-1.406-6.325-1.96c-0.518-0.111-1.221,0.111-1.48,0.703
	c0.592,0.703,1.295,1.479,1.665,2.331c2.849,2.404,4.698,5.401,7.288,8.249c-3.81-1.738-7.842-4.106-11.282-7.028
	c0,0,0.851-0.74,0.555-1.332c-0.74-0.074-1.554-1.812-1.517-2.293c0.555-0.148,1.554-0.296,1.665-1.146
	c-0.481-0.111-1.517-1.887-1.85-2.22c1.11-0.407,2.589-1.036,3.921-1.147c0.37-0.813-1.887-1.294-2.405-1.96
	c0.259-0.074,4.069-1.443,4.069-1.443c1.332-0.148,2.774-0.851,4.18-0.074c0.629,0,1.517,0.407,2.035-0.37
	c0.37-0.74-0.703-0.703-0.703-1.332c2.626-0.592,5.327,0.259,7.287,2.071c0.851,1.221,0,2.812,1.406,3.81
	c0.333,0.518,0.925,0.074,1.258-0.185c0.444-2.183,2.922-2.146,4.513-2.922c0.74,0.185,2.589-0.555,2.589-0.555
	c2.774-1.85,5.475-4.291,8.693-5.327c4.735-0.518,9.914-0.813,14.39-0.444c0.259,0.481-2.664,1.258-2.664,1.258
	c-0.592,0.333-1.184,0.851-1.591,1.332c0,0.518,0.444,0.925,0.777,1.258c4.957,0.962,8.545-2.071,13.132-1.886
	c1.294,0.148,2.589,0.407,3.551,1.072c0,0-4.587,0.148-5.327,0.518c-0.629,0.37-1.481,1.443-0.703,1.775
	c2.087,0.019,11.382,0.604,15.537,1.887c-1.258,0.814-2.774-0.111-4.254,0.444c-0.259,0.629-1.369,1.221-1.517,1.332
	c1.073,0.999,2.552-0.037,3.921,0.185c3.218,0.333,5.179,0.629,8.064,1.776c-1.85,0.037-3.625,0.74-5.068,2.034
	c0.074,0.296-0.148,0.481-0.074,0.777c0.962,0.48,1.739-0.518,2.737-0.518c5.142-0.777,8.434,3.588,11.727,6.843l1.332,1.961
	c-0.777,0.258-2.183-0.777-2.664,0.333c0.407,1.184,2.256,0.888,3.218,1.702c2.331,1.184,4.698,3.181,6.214,5.512
	c-0.999-0.592-2.367-0.37-3.662-0.629c-0.777-0.148-1.702-0.185-2.293,0.333v0.444c5.104,2.367,10.32,7.324,11.985,12.873
	c0.407,1.221,0.666,2.515,0.777,3.847C273.029,77.973,269.367,73.423,264.669,71.204z"/>
<path fill="none" stroke="#000000" stroke-miterlimit="10" d="M317.798,88.761c0,4.911-2.806,14.732-4.209,18.708
	c-1.023,2.9-6.379,6.94-6.379,6.94c-0.518,0.629-1.109,1.221-1.517,1.887c-3.847,2.479-6.362,6.732-8.508,10.542
	c-1.479,2.146-3.255,3.329-4.994,4.994c-0.999,0.592-1.886,1.702-2.922,2.035l0.37-4.957c1.368-0.777,5.064-3.686,6.732-10.21
	c-0.296-2.589,4.356-1.644,4.931-3.823c0.555-0.703,0.58-2.366,0.58-3.365c4.692-4.043,5.254-7.127,5.254-7.127
	c-0.111,0.037,5.918-13.65,5.992-13.761l-6.177-2.996c-0.407-0.074-0.845,3.239-2.922,2.812c-0.703,0.703-2.183,0.703-2.219,1.775
	c1.553,3.218-1.924,5.216-2.405,7.99c0.148,2.479,0.407,5.808,0.444,8.434c-0.222,1.923,0.412,5.144-1.886,5.253
	c-4.717-1.044-3.782,5.503-8.693,7.102c-0.555-1.442-0.666-3.107-0.888-4.698c0,0,2.997-0.481,3.551-1.775
	c-1.073-2.886,0.259-5.66,1.961-7.806c0.739-0.74,1.59-0.37,2.589-0.444c0.703-0.222,0.481-0.962,0.518-1.517
	c-1.442-2.737-0.37-5.845,0.444-8.545c0.777-1.775,2.701-3.07,2.849-5.142c0,0-0.259-4.182-3.61-5.599c0,0-6.119-3.76-8.561-6.83
	c-0.333-0.111-0.518-0.185-0.814,0.111c0.037,0.814,0.925,1.295,1.332,1.924c1.146,3.107,4.661,3.958,6.399,6.51
	c3.196,3.105,1.11,5.438,1.258,5.66c-0.999,1.073-1.554,2.441-2.589,3.551c-1.147,0.185-2.701-0.259-3.995-0.629
	c-1.961-1.295-2.109-5.585-2.109-5.585s-2.811-10.469-2.071-14.39c0.148-1.036,2.333-9.244,10.654-5.475
	c3.662,2.553,10.912,10.025,11.023,10.025c0,0,5.217,8.339,6.732,8.138c3.155-0.418,0.439-16.098-0.074-19.716
	c-0.513-3.619-3.598-7.513-6.732-8.138c-3.134-0.625-3.891-2.316-17.053,5.4c-3.653,2.142-10.401,6.134-11.8,4.624
	c-1.184-1.665-2.774-3.033-3.477-5.068c1.295-1.702,2.812-2.848,4.624-3.884c3.884-1.85,7.546-5.031,11.8-6.4
	c3.41-0.585,4.439-0.481,6.658-0.703c3.07,0.074,5.982-0.405,9.322,0.629c3.339,1.034,6.379,3.373,9.419,8.049
	S317.798,83.851,317.798,88.761z"/>
<path fill="none" stroke="#000000" stroke-miterlimit="10" d="M106.938,62.917c-2.848-0.592-8.286,7.065-9.321,8.36
	c-2.438,5.441,0.37,7.028,0.444,8.434c0.444,0.148,1.146-0.074,1.221,0c0.074-0.851,0.065-1.11-0.629-2.22
	c-0.666-0.887-0.962-2.293-0.444-3.366c0,0,3.662-4.402,4.291-4.994c1.332-1.442,3.144-2.552,4.069-4.328
	C108.465,63.317,106.938,62.917,106.938,62.917z"/>
<path fill="none" stroke="#000000" stroke-miterlimit="10" d="M181.069,91.512c-1.48,1.073-3.7,0.555-5.253,0.444
	c0,0-5.956-3.588-6.732-6.104v-0.111c-0.518-0.295-0.925,0.185-1.332,0.37c-0.667,3.235,0.295,5.105,1.923,6.917
	c1.184,1.85,3.255,2.293,5.179,2.737c1.96,0.518,3.514-0.481,5.216-0.888V94.73c1.702-0.629,4.698-3.847,4.698-3.847
	C183.473,90.661,182.252,91.475,181.069,91.512z"/>
<path fill="none" stroke="#000000" stroke-miterlimit="10" d="M142.968,91.956c-3.145,1.517-3.958,4.92-5.512,7.546
	c0,0-1.479,2.737-2.108,3.81l-0.296-0.259l-0.074-3.367c-0.148-0.629,0.188-0.753,0-1.775c-0.259,0-4.372,2.776-4.365,8.064
	c0.001,0.744-0.111,1.813-0.592,2.405c-0.074-0.037-1.59-0.37-1.96,0.111c0.074,0.814-0.777,1.479-0.703,2.367
	c-0.666,0.148-0.555-0.924-0.999-1.22c0.111-0.074-1.258-4.402-1.221-6.917c-0.148,0.111-1.258-0.074-1.442,0.148
	c0.333,1.405-0.259,3.329-0.186,4.735c0,0,0.555,5.253,0.814,7.694c0,0,0.74,2.368,1.147,3.551c0,0,0.48,1.258,0.555,1.702
	c0,0,6.732,15.685,7.546,15.537c0.703-0.814,0.74-6.695,0.777-8.25c-0.481-0.443-0.37-6.991,0.185-9.507
	c0.333-0.37,2.146-5.992,2.664-8.952c-0.222-1.553,5.401-13.021,5.512-13.058c0,0,2.441-1.146,2.664-0.813
	c0,0-2.737,4.624-3.551,6.325c0.074,2.812-1.517,7.954-0.999,7.99c0.925-2.479,3.23-4.809,4.809-6.399
	c2.293-3.292,10.542-10.542,11.282-10.136C155.744,89.58,145.927,88.959,142.968,91.956z"/>
<path fill="none" stroke="#000000" stroke-miterlimit="10" d="M274.805,101.388c0,0-0.962-0.962-1.258-1.073
	c0,1.628-1.998,5.734-1.775,6.104c-0.555,0.555-0.259,1.739-1.147,2.331c0,0-0.924-1.257-0.259-2.219
	c0-0.518,0.444-1.221-0.37-1.332c-0.37-0.074-1.147-0.259-1.147-0.259c0.666-1.701,0.222-3.477,0.111-5.253
	c-0.259-0.518-0.296-2.737-0.813-2.848c-0.333-0.711-1.221-0.444-1.702-0.629c-0.148,1.036,0,1.887-0.259,2.848
	c-0.666-0.111-1.479-2.589-2.552-4.069c-0.592-0.888-1.627-2.219-2.774-2.479c-0.185,0.148-0.776,0.037-0.629,0.518
	c2.404,3.181,2.293,6.658,3.218,10.21c0,0-0.148,3.329,0,3.551c-0.111,0.407-0.259,4.365-0.629,5.401c0,0-1.257,4.069-1.59,6.214
	c0,0,1.96-1.442,2.848-2.035c0.185,1.406,0.518,4.365,0,4.624c0.148,0.962,0.703,2.626,0.888,3.736
	c-0.074,1.997-1.184,3.625-2.071,5.216c-1.036,1.406-2.553,2.219-3.107,3.736c1.147,3.44-0.625,6.233-3.181,8.693
	c-0.814,0.666-1.828,1.048-2.589,1.628c1.11,1.739-0.177,3.715-0.444,5.475c-0.355,2.335-1.627,3.107-2.664,4.439
	c0.37,0.481,5.681-3.478,5.623-9.581c1.368-0.666,2.737-1.85,3.699-3.181c1.27-0.83,2.108-1.443,2.664-1.073l0.111-4.18
	c0.333-2.774,2.626-4.994,3.292-7.731c0.444-0.444,5.031-11.504,5.66-12.133c0.666-1.443,0.555-3.255,1.146-4.624
	c0.333-0.444,1.184-4.587,1.517-5.142C275.619,104.496,274.62,103.127,274.805,101.388z"/>
<path fill="none" stroke="#000000" stroke-miterlimit="10" d="M194.533,97.394c-2.034,1.96-2.959,5.104-5.918,5.771
	c0,0,1.738,1.85,4.587,0.259c1.476-0.824,2.885-1.85,4.18-2.849c0.555-1.109-0.131-1.173-0.777-2.589
	C196.383,96.801,195.347,97.208,194.533,97.394z"/>
<path fill="none" stroke="#000000" stroke-miterlimit="10" d="M205.816,97.652c-1.369-0.518-3.366,2.367-3.181,3.181
	c1.775,1.887,4.106,3.366,6.732,2.848c0.555-0.296,1.147-0.74,0.888-1.405C207.999,101.721,207.073,99.317,205.816,97.652z"/>
<path fill="none" stroke="#000000" stroke-miterlimit="10" d="M248.356,159.687c-0.185-0.147-0.777,4.402-2.405,6.141
	c-1.516,1.517-3.736,1.332-5.696,1.073c-1.591-1.553-3.107-3.773-3.884-5.697c-2.035-3.218-4.809-6.177-4.365-10.394
	c-0.074-2.22-2.479-2.849-3.736-4.513c0,0,2.146,4.106,2.146,6.141c-0.555-0.037-0.888-0.592-1.332-0.888
	c-2.553-1.369-4.476-3.81-6.659-5.881c0,0-1.591-2.108-2.589-2.404c0.074-0.037-4.812-1.068-6.713-0.585
	c-0.111,0.148-7.196,3.433-9.6,6.097c-2.441,0.592-4.518,0.553-8.101,1.332c-0.888-0.666-1.702-1.59-2.812-1.665
	c-1.294-1.369-2.368-2.959-3.921-3.847c-1.147-0.592-2.959-1.184-4.069-0.148c-0.333,0.481-0.23,0.789-0.813,1.776
	c-1.258,1.479-5.66,3.662-5.956,4.254c-2.463,1.657-6.14,8.027-7.102,8.693c0,0-2.43,4.074-2.922,5.585
	c-0.037,2.442-0.333,4.772,0.185,7.288c0.592,1.775,7.546,9.691,10.728,11.171c1.442,0.196,2.737,1.036,3.477-0.259
	c0,0-0.398-0.656-2.848-1.665c-0.407-0.555-5.5-3.2-8.175-8.989c0,0.111-1.258-2.293-1.221-3.107
	c-1.396-4.41,9.914-19.125,11.615-20.049c0.814-0.703,3.847-3.515,4.254-4.439c2.922,0.813,4.217,4.032,4.624,6.732
	c1.036,0.592,1.332-0.592,2.146-0.777c3.107,1.702,5.697,4.994,6.548,8.323c0.295,1.073,0.074,2.441,0.887,3.218
	c0,0,2.22-5.29,2.664-7.731c0.777-1.997,2.441-4.92,4.809-4.994c0.592-0.185,0.407-0.703,0.333-1.221
	c1.479-1.627,3.477-3.958,5.955-3.292c1.998-0.185,2.922,1.961,4.18,2.738c2.146,2.219,7.028,7.398,7.028,7.398
	c0.259,0.444,0.703,1.147,1.332,1.147c0.444-0.037,0.185-0.518,0.259-0.814c-2.774-4.069-6.584-7.509-9.248-11.615
	c0.444,0,9.729,8.545,14.02,12.059c1.257,4.069,3.958,7.509,4.55,11.8c-0.851,2.886-0.111,6.104-1.332,8.804
	c0,0-0.259,0.925-0.111,1.258c0.592,0.851,1.479,1.701,2.404,2.108c0.592,0.518,1.665,0.74,2.331,1.517
	c1.553,3.551,2.737,7.25,3.107,11.282c0.074,0,0.37,0.962,0.444,1.406c0.37-1.665,0.74-12.059-2.071-14.538
	c-0.185-1.294-1.073-2.183-0.592-3.662c0.259-0.592,6.474-5.771,6.474-5.771c2.478-2.035,2.663-5.031,2.219-7.806
	C248.504,161.462,249.022,160.353,248.356,159.687z"/>
<path fill="none" stroke="#000000" stroke-miterlimit="10" d="M217.616,167.344c0.666-0.629,0.295-1.665,0-2.33
	c-0.74-1.665-2.997-1.739-4.439-0.962c-0.037,0.185,0.592,2.071,0.888,2.663c1.258,0.962,0.999,2.664,0.888,4.069
	c-0.777,3.773-5.325,6.46-8.322,7.57c-1.554,0.555-3.848-2.096-3.996-2.133c0,0-4.843,2.517-4.511,2.665
	c0,0-6.018-1.381-7.733-4.366c0,0-1.443-3.292-2.405-4.772c0.037,0.037-0.887-1.16-0.887-1.16l-0.79-1.196
	c0.536-0.878,0.629-1.828,0.555-2.567c-2.124-0.182-3.176,0.871-3.712,2.733c-0.75,3.75,2.491,1.409,2.491,1.409
	c-0.209,2.91-0.016,6.242,0.9,8.919c1.221,3.218,3.699,6.917,7.472,7.102c3.107,0.518,5.808-1.294,7.62-3.255
	c0.037,0.555,1.095,1.455,1.613,1.825c5.811,2.716,13.645-1.727,13.664-14.697c-0.074-0.74-0.253-0.943-0.518-2.072
	C216.617,167.196,217.209,167.418,217.616,167.344z"/>
<path fill="none" stroke="#000000" stroke-miterlimit="10" d="M228.27,211.808c0.148-0.481,0.481-0.888,0.74-1.332
	c0.185-0.222-0.888-1.072-0.888-1.072c-2.035,4.772-7.176,6.658-10.765,9.766c0.148,0.444,0.444,0.703,0.814,0.74
	c0.259-0.259,4.106-1.923,6.03-2.516c1.997-1.812,4.624-2.996,5.956-5.475C230.082,211.808,228.713,211.66,228.27,211.808z"/>
<path fill="none" stroke="#000000" stroke-miterlimit="10" d="M182.992,217.319c-1.812,0.074-3.81-0.185-5.475,0.259
	c-2.071,0.222-3.773,1.073-5.881,0.629c-7.298-2.703-7.842-5.401-8.434-5.327c-0.074,0.74-0.888,1.776-0.888,1.776
	c1.146,0.924,2.256,2.848,3.736,3.292c0,0,1.627,0.777,2.589,0.888c1.701,0.777,3.736,0.777,5.475,0.629
	c1.517-0.851,6.399-1.073,6.77-1.257C180.884,218.208,183.991,218.096,182.992,217.319z"/>
<path fill="none" stroke="#000000" stroke-miterlimit="10" d="M226.274,167.401c-1.026,1.588-1.057,5.475-1.057,5.475
	s-0.373,4.396-1.413,5.138s-6.293,4.881-6.293,4.881s2.54-0.011,3.771-0.698c1.231-0.687,3.796-2.938,4.577-4.312
	c0.781-1.374,1.926-6.165,1.926-6.165l3.083-6.422l-2.571-0.374C228.298,164.924,227.3,165.813,226.274,167.401z"/>
</svg>
